<?xml version="1.0" encoding="UTF-8" standalone="no"?>
<!-- Created with Inkscape (http://www.inkscape.org/) -->
<svg
   xmlns:svg="http://www.w3.org/2000/svg"
   xmlns="http://www.w3.org/2000/svg"
   version="1.0"
   width="460.63"
   height="785.71094"
   viewBox="0 0 460.62793 785.71094"
   id="svg4863"
   xml:space="preserve"><defs
   id="defs4871" />
	
		<g
   transform="matrix(0.9368246,0,0,0.9368246,14.550233,24.818838)"
   id="Ebene_1_Kopie">
			<path
   d="M 434.51465,785.5625 C 429.49805,784.89453 423.19434,784.53516 420.29395,779.71875 C 416.75195,773.83398 415.10547,766.25098 412.59473,759.84668 C 409.79199,752.69727 407.1416,745.58398 403.64355,738.72949 C 402.60059,736.68457 401.57324,734.22363 399.98535,732.52051 C 398.03613,730.43066 391.21875,733.5791 389.29395,734.30859 C 384.81348,736.00488 379.71191,738.75488 374.91602,739.2998 C 367.46387,740.14746 359.38867,739.01953 351.93945,738.56055 C 343.07031,738.01465 334.53906,737.83594 325.65723,738.30859 C 322.54687,738.47461 321.34668,737.93652 318.98437,736.23437 C 316.07324,734.1377 310.9082,736.77148 307.89551,737.46191 C 303.96582,738.36133 302.72949,737.29883 299.83887,734.81348 C 297.17676,732.52441 291.88281,733.67383 288.5918,733.50098 C 286.34375,733.38379 282.97754,733.45703 281.05762,732.01367 C 278.29785,729.93848 281.68848,725.84668 277.56641,724.78223 C 273.77637,723.80371 269.70215,724.23535 265.97852,723.0166 C 263.03809,722.05371 264.08496,720.22266 263.96094,717.75293 C 263.85352,715.61621 256.88965,715.79199 255.5957,715.60547 C 252.49512,715.16016 250.41602,712.83105 247.2373,712.38379 C 243.03076,711.79199 230.51855,711.40332 236.19971,704.30957 C 238.62549,701.28027 224.50684,699.90625 222.42529,699.64062 C 212.00244,698.31543 226.24023,690.12891 217.12305,688.72656 C 211.07471,687.7959 201.20996,687.93457 196.34424,683.44922 C 195.10937,682.31055 195.59131,681.18164 195.04346,679.80273 C 194.27197,677.86133 190.86133,677.4082 189.17871,676.98242 C 174.25098,673.20117 191.89111,668.15527 188.46436,665.18652 C 186.11475,663.14941 181.31299,663.24023 178.46338,662.68945 C 174.38916,661.90332 170.14893,660.91406 166.40381,659.07129 C 163.09375,657.44238 163.51709,656.125 163.11865,652.95801 C 162.81201,650.52148 156.61084,650.2334 154.73584,649.72559 C 152.88086,649.22266 148.37939,648.66797 149.21191,645.71582 C 150.68604,640.49023 152.44727,641.37402 146.84277,637.97559 C 143.72803,636.08594 141.1748,634.06348 137.59766,633.04785 C 135.86133,632.55469 125.85938,631.625 128.7207,627.8623 C 130.61035,625.37891 133.84131,623.16016 129.44385,621.8916 C 125.48389,620.74902 121.47461,619.79102 117.49561,618.71973 C 113.2666,617.58105 109.47705,615.43555 114.99707,611.54883 C 120.69238,607.54785 109.4624,606.54102 106.7876,605.5127 C 102.42187,603.83301 92.834473,601.70508 93.645019,595.81641 C 94.265137,591.31348 84.449219,587.47266 81.320801,585.83789 C 79.802246,585.04395 77.041992,584.06152 76.328613,582.2793 C 74.763183,578.36621 80.803223,577.8877 83.030273,576.78711 C 88.603516,574.03223 66.844726,562.99414 66.063476,558.90234 C 65.563965,556.29199 69.103027,554.03125 65.932129,552.16113 C 62.100098,549.90137 57.964355,548.17383 54.233887,545.74023 C 52.403808,544.5459 50.20459,542.97363 49.838867,540.6416 C 49.197265,536.5459 47.283691,534.21875 44.461914,531.24805 C 42.268066,528.9375 35.882812,523.94824 40.345703,520.85547 C 43.609375,518.59375 54.613769,525.56836 56.146973,523.08789 C 56.79248,522.04199 50.307129,517.72852 49.65332,516.62598 C 47.379394,512.79492 48.56543,511.90918 44.364258,509.1123 C 41.936523,507.49707 38.783203,505.5332 37.656738,502.67187 C 36.086426,498.68359 36.056641,496.56738 32.344727,493.46387 C 30.218262,491.68555 26.00293,488.83496 25.442383,485.96289 C 24.79834,482.66211 28.522949,482.49023 26.503906,478.9082 C 24.709961,475.72559 22.779297,472.37891 20.556641,469.46973 C 18.611328,466.92383 14.799805,463.84766 15.794434,460.17676 C 16.313477,458.25977 31.606445,460.20898 29.387695,456.3418 C 27.598144,453.22266 24.038574,451.16602 21.835449,448.30957 C 19.580078,445.38477 22.292969,442.03516 20.316894,439.67383 C 18.130859,437.06152 5.2905272,429.23047 7.6455077,425.84277 C 9.2773436,423.49512 11.078613,423.14062 9.8227538,420.3877 C 8.4780272,417.43848 6.9501952,414.55566 5.336914,411.74512 C 2.2299804,406.33203 -0.5917969,402.38574 7.980957,403.48145 C 10.021973,403.74316 14.526855,404.70508 16.417969,403.53516 C 17.791504,402.68848 13.704102,398.45215 13.562012,396.87891 C 12.922852,389.81055 7.2338867,386.83887 4.0209961,380.81201 C 3.4013672,379.65039 3.2568359,378.56836 3.7641602,377.34326 C 5.1152344,374.08301 2.4897461,370.03613 1.2709961,367.1665 C 0.4516602,365.2373 0.3789063,363.23096 2.1972656,361.72314 C 4.3984375,359.89844 0.6845703,355.12402 0.1889648,353.13867 C -1.7739258,345.27441 12.303223,354.57812 9.5883789,345.94092 C 8.3979492,342.15186 1.1313477,331.82715 4.6743164,327.95898 C 6.8344726,325.60059 7.7431641,326.18603 7.1708984,322.53271 C 6.4936523,318.20605 5.4550781,314.00488 4.508789,309.73926 C 2.5742187,301.01953 13.244629,309.20947 16.822754,306.4751 C 21.447266,302.94141 14.533691,289.90186 13.680664,285.91211 C 12.839844,281.97852 15.901367,282.2915 18.147949,280.71728 C 19.697266,279.63184 18.964355,276.85107 18.874512,275.30322 C 18.711914,272.51123 15.298828,258.14453 21.496094,259.43603 C 24.249023,260.00977 33.212402,269.43506 31.171875,261.62793 C 30.205566,257.93115 22.263672,239.99072 30.699707,240.16113 C 37.086426,240.28955 31.594726,225.10352 31.095215,221.35693 C 30.743164,218.71777 31.176269,214.20703 34.864746,214.48535 C 36.91748,214.63965 42.629883,220.27344 43.76709,219.57275 C 46.258301,218.03174 40.546387,204.66602 41.195801,201.5293 C 41.754394,198.83203 44.760742,199.89893 46.125488,198.53418 C 48.229004,196.43066 45.875976,189.77783 45.96875,187.15527 C 46.310058,177.44824 55.52832,190.50781 58.21875,190.65674 C 61.905273,190.86035 56.506348,175.09228 56.928223,172.50488 C 57.277344,170.36572 59.495117,169.28174 59.259766,166.95703 C 58.940918,163.8125 56.393555,160.37646 57.431641,157.14111 C 59.536133,150.58496 73.052734,169.11719 69.359863,153.82275 C 68.767578,151.36963 68.004394,147.86279 70.902344,146.58301 C 72.594238,145.83594 74.261719,146.04492 74.161621,143.72852 C 74.030273,140.69727 69.648926,127.99072 77.16748,131.51221 C 83.210449,134.34326 77.903809,123.75293 79.69043,121.01807 C 80.282227,120.1123 81.990723,119.54687 82.36084,118.58447 C 83.143066,116.55127 80.674805,113.27246 82.291016,111.375 C 82.998535,110.54394 85.519043,110.22461 85.630859,109.24805 C 85.953125,106.44092 84.258789,102.91064 83.604004,100.26074 C 83.12207,98.311035 81.914551,94.867187 83.339844,93.002929 C 85.530762,90.137695 88.76123,93.162109 87.540039,88.381835 C 86.662109,84.946288 85.195801,81.42871 85.327637,77.815429 C 85.446777,74.547851 89.145996,75.484863 89.96582,73.385253 C 90.98584,70.774414 89.056152,68.097656 90.376465,65.276855 C 92.282715,61.20996 89.643555,58.242187 87.917969,54.534667 C 86.95459,52.464843 85.766113,49.841308 87.384277,47.783691 C 89.070801,45.63916 91.275879,46.725097 91.638184,43.411132 C 92.086914,39.311523 90.661621,36.291503 89.310059,32.509765 C 87.716309,28.049804 90.479004,28.284667 91.123047,24.654296 C 91.465332,22.726074 89.711914,20.768554 89.974609,18.685546 C 90.280273,16.261718 92.619629,14.870605 93.358398,12.612304 C 94.398926,9.4321283 92.959473,1.8925775 96.765625,0.3154291 C 101.73926,-1.7446295 105.08105,6.8662103 107.3457,9.8803705 C 110.146,13.605956 109.13232,17.895507 108.81836,22.256835 C 108.56445,25.791503 112.35742,29.618163 112.61523,33.669921 C 112.93018,38.617675 110.49756,42.189452 114.396,45.923339 C 116.93604,48.356445 115.53564,51.91455 115.95703,55.260741 C 116.3374,58.284179 121.13281,57.294921 121.34863,60.711425 C 121.50098,63.129882 121.08496,65.552245 121.26074,67.978515 C 121.4668,70.820312 123.66748,69.575195 125.75537,69.595702 C 129.78125,69.635741 130.26807,77.918456 131.00342,80.427245 C 131.53613,82.244628 132.24268,83.961913 133.04004,85.671874 C 134.0791,87.897948 134.33838,86.20703 136.40625,86.722167 C 141.89014,86.135741 142.29639,92.460937 144.1416,96.461913 C 144.90674,98.121093 145.6792,99.853027 146.71045,101.36914 C 147.83887,103.02783 150.10693,101.40869 151.70752,101.60742 C 155.21289,102.04297 156.29102,111.87256 159.0791,110.76807 C 160.99219,110.01025 162.61719,108.23682 164.75439,109.66455 C 166.64404,110.92725 167.10303,114.78418 169.54688,115.02588 C 174.18555,115.48535 175.47021,117.09912 177.90234,121.03174 C 179.29736,118.91894 181.83545,116.63721 184.40772,118.5957 C 186.20361,119.96338 187.20996,122.20215 188.979,123.52637 C 191.02148,125.05615 193.78662,124.59473 195.59473,126.68555 C 196.82861,128.1123 199.0835,139.17285 201.24072,137.21924 C 203.66064,135.02978 204.72022,127.01562 208.86914,133.78174 C 209.92725,135.50684 211.2832,137.03857 212.30078,138.78369 C 214.78369,143.0415 213.70752,142.33105 217.80713,141.77246 C 223.94922,140.93603 222.61328,151.30615 226.85889,152.33545 C 228.00537,152.61328 228.45703,142.76953 229.66504,141.48389 C 233.06836,137.86084 237.54199,145.26074 239.26172,147.41406 C 241.14209,149.76855 246.19141,159.12353 249.33496,155.48828 C 254.31934,149.7207 258.0166,161.04785 258.86816,164.36865 C 259.49609,166.82031 260.47656,169.70947 262.16309,171.66309 C 263.73731,173.48633 264.87891,168.98779 265.96582,168.22754 C 267.0332,167.48047 269.25781,168.17969 269.97559,167.11719 C 271.23145,165.25879 269.22363,161.16211 269.34766,159.02441 C 269.73633,152.31055 276.18066,159.05957 277.47656,161.16113 C 280.36328,165.84326 283.43066,170.3916 286.27734,175.09961 C 288.22852,178.32764 291.83301,177.2168 293.94238,180.65771 C 296.55273,184.91748 296.73926,190.79736 300.00488,194.52832 C 303.07813,190.4248 300.67383,181.88525 305.26367,178.95117 C 310.34863,175.70215 313.95117,189.43115 317.59473,190.34033 C 323.26367,191.75586 321.61328,201.32617 325.04785,204.38818 C 327.72168,206.77051 329.43945,207.17383 330.87207,210.73682 C 332.07715,213.73291 332.57324,219.44189 335.22559,221.52588 C 339.72461,225.06689 336.96094,210.79834 342.08496,210.52588 C 347.94922,210.21436 350.81152,222.0918 353.47559,225.89697 C 354.93555,227.98193 356.91016,230.26074 358.94922,231.75879 C 361.4043,233.56299 363.93652,232.93164 365.43652,236.12256 C 366.67969,238.76953 368.51172,254.65869 370.91016,254.98535 C 372.59961,255.21533 377.54785,256.30078 378.28418,254.40283 C 379.36914,251.61865 378.66699,247.51123 380.75195,245.19482 C 385.44727,239.97803 388.74902,259.10986 390.31055,260.79736 C 394.47754,265.30127 395.02539,264.92432 394.25195,271.39502 C 394.08398,272.80176 392.53125,278.41113 394.35938,279.46387 C 396.91309,280.93555 399.00977,279.71728 399.34082,283.83301 C 399.70508,288.34619 397.58398,292.61816 397.90918,297.18555 C 398.07324,299.49609 399.45996,304.88232 401.52637,300.57812 C 402.74219,298.04687 403.35449,291.60498 406.60352,290.82959 C 410.47461,289.90576 410.98438,296.69092 411.60352,299.0332 C 412.5957,302.78223 413.36426,306.7085 414.82813,310.31396 C 415.60547,312.22754 418.625,311.94727 419.92578,313.51172 C 423.28223,317.54639 418.34668,327.55518 423.36035,329.5835 C 430.12598,332.32031 427.38086,340.31787 427.38867,346.62598 C 427.39063,348.32422 426.77246,352.84082 427.97656,354.29004 C 430.12891,356.88721 433.75293,350.91504 434.47656,349.58691 C 435.54883,347.62109 435.80859,344.36963 438.14258,343.40332 C 441.09766,342.17822 441.74805,345.26758 441.78418,347.32471 C 441.81738,349.146 440.30176,360.88965 441.8418,361.86084 C 446.89551,365.04883 445.85449,369.49658 444.93262,375.02148 C 444.58203,377.12451 442.4248,381.15283 444.78613,382.69043 C 446.42773,383.75879 448.75293,383.90234 449.04004,386.19336 C 449.78516,392.14258 447.15918,398.46582 446.74023,404.35156 C 446.6582,405.50684 446.45898,413.01758 449.31055,410.84961 C 451.78027,408.9707 455.25391,405.89746 456.12012,411.06055 C 456.75,414.81445 455.20215,418.60449 454.89941,422.31543 C 454.60059,425.96875 456.01074,427.41797 457.62988,430.40234 C 460.37695,435.46387 454.40137,441.8291 455.76758,446.83008 C 456.25586,448.61719 459.11914,450.96484 459.00488,452.74512 C 458.84375,455.26758 458.71191,457.7793 458.30957,460.2793 C 457.55664,464.96094 455.99414,469.36426 454.93164,473.95801 C 453.95703,478.16992 459.52539,473.67285 460.47559,477.46289 C 461.2207,480.43066 459.07129,484.72559 457.8584,487.29102 C 456.22559,490.74512 456.64648,491.37793 457.8291,494.66016 C 459.60059,499.57422 451.94141,509.93262 449.16309,513.67871 C 442.63184,522.49512 455.48633,512.11328 457.23633,517.71191 C 458.82813,522.80762 451.96875,530.92383 450.26953,535.51855 C 449.11719,538.63769 453.33008,540.05566 452.13281,543.54297 C 451.21387,546.21777 449.97559,548.80469 448.69629,551.32227 C 447.53809,553.60059 444.14453,557.31641 444.53711,559.9707 C 444.85352,562.10742 447.98633,561.88965 447.83398,564.59668 C 447.60059,568.75781 444.31348,571.51269 441.68848,574.26562 C 440.96582,575.02246 436.74219,579.24609 438.49316,580.57227 C 440.1377,581.81836 443.25098,581.25781 442.9375,584.23242 C 442.33691,589.92773 436.85645,596.52734 433.81738,601.20117 C 432.28223,603.5625 430.3584,606.13281 429.41113,608.81445 C 428.43848,611.57129 430.57324,614 429.53125,616.71289 C 427.625,621.6748 424.36914,625.68457 421.34082,629.94043 C 419.90234,631.96387 418.59277,634.10547 417.45313,636.31055 C 415.52148,640.04883 417.32227,638.54394 420.08984,638.17383 C 424.71777,637.55469 419.12012,653.5332 418.49707,655.91309 C 416.7627,662.54199 416.29102,669.41211 415.63281,676.22363 C 414.33691,689.62988 416.4707,704.32031 411.13184,717.11523 C 408.99707,722.23437 414.03223,727.42969 416.57715,731.55469 C 420.64551,738.14941 424.7373,744.66309 429.34863,750.89648 C 433.08789,755.95703 453.92285,788.15625 434.51465,785.5625 M 434.19629,774.72266 C 437.9834,771.61719 424.62988,754.25488 423.16699,751.22656 C 418.22266,740.99414 410.96094,731.70703 404.82715,722.14258 C 397.61328,710.89648 390.93555,699.34375 384.40332,687.69336 C 381.80762,683.06445 379.29688,678.41406 376.99316,673.63086 C 376.79688,673.22363 372.45215,663.59082 370.74121,667.17773 C 369.06348,670.69531 375.48535,676.9043 377.1748,679.48828 C 380.0625,683.90625 382.60449,688.62012 385.30664,693.1582 C 390.08984,701.19238 394.99121,709.13281 399.59961,717.27051 C 405.36816,727.45898 410.61816,738.14844 415.22168,748.9082 C 417.01953,753.1084 425.21875,782.15332 434.19629,774.72266 M 317.06934,730.42383 C 323.32812,728.58789 323.61523,728.36328 328.94043,731.2168 C 330.66895,732.14258 334.1875,730.82715 336.14648,730.75391 C 341.16699,730.56836 346.20312,730.93359 351.22168,731.03418 C 356.51855,731.1416 362.29395,731.52246 367.45996,730.05957 C 369.15625,729.5791 370.58594,728.58105 372.23828,728.02344 C 375.62988,726.87891 379.63379,728.45215 383.16406,727.86328 C 386.61523,727.28711 390.69922,726.64258 393.9375,725.32813 C 396.50488,724.28613 393.48535,719.48535 392.75293,718.13184 C 390.52832,714.02344 388.26074,713.75684 383.62988,713.59277 C 376.39551,713.33496 369.12598,713.48047 361.89941,713.04199 C 355.20605,712.63574 348.6416,711.24414 341.9502,710.93848 C 336.73047,710.7002 326.80859,707.35547 322.02148,710.02344 C 318.72266,711.86133 315.37109,713.09082 311.93848,714.65918 C 308.51074,716.22461 305.18262,718.99121 301.37207,719.5957 C 300.10645,719.7959 298.13867,719.19238 297.98535,717.6416 C 297.75684,715.33398 303.19336,713.52246 304.59863,712.88867 C 309.60937,710.62988 315.97266,708.20801 307.61719,705.94238 C 299.57422,703.76172 290.80566,704.15332 282.55957,703.30762 C 279.10645,702.95313 275.59082,702.64063 272.19238,701.90527 C 270.65723,701.57324 268.67285,699.13867 270.69434,698.01367 C 274.58105,695.85156 284.90039,698.86133 289.29199,699.18066 C 297.51172,699.77734 306.25879,699.19727 314.13867,701.88867 C 326.93457,706.2627 342.34766,704.68066 355.77344,706.22949 C 363.64453,707.1377 372.08496,709.05762 380.02734,708.05176 C 382.12695,707.78613 386.26953,707.17676 384.56348,704.21289 C 382.51269,700.65039 381.10547,696.44629 378.79492,693.0957 C 375.38965,688.1582 369.16894,688.99219 363.86523,688.97852 C 355.99219,688.95703 348.5791,689.51562 340.70605,688.70703 C 327.78613,687.38086 314.33008,688.46777 301.33301,688.01465 C 294.40332,687.77344 287.33984,687.73242 280.46094,686.7998 C 272.26562,685.6875 264.04102,682.93457 255.95019,681.1416 C 253.22266,680.53711 250.33447,679.94531 247.80371,678.71387 C 246.19287,677.93066 244.49609,675.1123 247.62402,674.51367 C 249.67676,674.12207 252.63769,675.3291 254.57715,675.81152 C 259.29785,676.98437 263.89648,678.0752 268.67871,678.93848 C 276.41894,680.33789 283.78613,682.09961 291.7168,682.73828 C 299.88867,683.39746 309.55371,685.16699 317.66699,683.63672 C 328.70801,681.54883 340.41504,683.16211 351.51758,683.7793 C 357.19824,684.09473 362.90234,684.28906 368.59277,684.26855 C 376.87012,684.23926 369.66406,674.96387 366.99219,670.93262 C 364.52832,667.21582 361.53711,668.4541 357.45703,668.54199 C 348.96582,668.72559 340.46973,667.83887 332.08301,666.58594 C 302.86914,662.2207 274.85742,653.58008 246.146,646.81445 C 229.43994,642.87793 212.21094,639.09277 195.26074,636.39062 C 187.70117,635.18555 180.18652,633.74707 172.62891,632.5332 C 165.82178,631.44043 156.93408,631.33203 150.84326,627.91895 C 149.3042,627.05664 147.83936,624.48437 150.52978,623.80273 C 153.15283,623.13867 157.3374,625.07227 159.79785,625.79687 C 165.93994,627.60547 171.48389,628.23437 177.89062,628.87891 C 192.77686,630.37695 207.26123,636.01562 222.06494,637.27441 C 248.96143,639.56055 275.0166,650.08008 301.26953,655.60352 C 308.10547,657.04199 315.06348,657.88379 321.94336,659.08496 C 325.7168,659.74414 329.54687,659.5127 333.31641,660.09961 C 337.88867,660.80957 342.6416,662.07324 347.16699,660.23242 C 350.14453,659.02246 360.51855,663.43848 357.96289,657.2998 C 355.54199,651.48145 352.93457,645.17578 349.66894,639.76953 C 346.83105,635.07129 345.35547,635.06738 340.1123,635.13281 C 333.54102,635.21582 327.97852,633.97461 321.55566,632.68066 C 307.07519,629.76465 293.0918,625.05176 278.49805,622.49512 C 261.9707,619.59961 245.70508,615.95312 229.28223,612.84375 C 215.07812,610.1543 200.97168,607.1377 186.80859,604.2998 C 179.53613,602.84375 172.02246,600.66602 165.02685,598.23242 C 158.97168,596.12598 152.03564,595.58691 145.76855,594.23242 C 140.7876,593.15625 135.65723,592.2832 130.97656,590.20117 C 124.96143,587.52637 117.5498,587.52051 111.88428,584.1123 C 110.9375,583.54297 110.25049,582.26172 111.10059,581.22461 C 113.08545,578.80469 117.7832,581.75586 119.78809,582.57715 C 126.01709,585.12793 132.62939,586.37598 139.17236,587.82031 C 155.67139,591.46289 171.94043,596.3457 188.48926,599.72754 C 203.21094,602.7373 217.84668,606.08789 232.65478,608.53223 C 238.76318,609.54102 243.56396,611.49316 249.83691,611.60156 C 257.4873,611.7334 264.7041,613.71191 272.17969,615.25391 C 279.21387,616.70508 286.28809,618.08105 293.28516,619.72852 C 301.37988,621.63379 309.61523,622.73926 317.64355,624.82617 C 323.82617,626.43359 330.47559,627.30176 336.86133,627.42969 C 346.97656,627.63184 337.30273,617.08887 334.82031,612.73535 C 329.32129,603.09375 322.92187,585.15723 310.26074,583.41016 C 296.89258,581.56543 283.37305,580.9043 270.00098,579.07227 C 240.10254,574.97559 210.04004,568.75293 180.83691,561.1709 C 166.50781,557.4502 151.84766,554.76758 137.36572,551.67187 C 132.24072,550.57617 126.98389,550.16602 121.90039,548.87109 C 113.8081,546.80762 105.06982,551.62793 96.918945,552.44238 C 94.820312,552.65234 78.372558,553.37305 80.31787,549.05664 C 81.856933,545.6416 98.689453,547.2998 102.46777,546.7168 C 107.06103,546.00781 104.01611,544.10059 101.07422,543.39648 C 97.114745,542.44727 93.290038,541.02539 89.458007,539.66992 C 84.739746,538.00195 79.641113,536.62598 75.168945,534.32812 C 70.682617,532.02344 75.867187,529.92773 79.305664,531.06152 C 86.923339,533.57227 93.788574,537.21387 101.60889,539.10937 C 116.36377,542.68555 131.38428,546.00293 146.3584,548.75879 C 161.22266,551.49414 175.78906,555.64258 190.69727,558.2168 C 205.29834,560.73828 220.13135,564.09473 234.49609,567.71973 C 249.02441,571.38477 264.20019,572.5 278.9834,574.71387 C 287.33984,575.96582 295.7373,576.39648 304.10547,577.69434 C 305.25098,577.87207 310.85937,579.21191 311.5,577.39453 C 312.45215,574.69434 306.03223,568.31055 304.66602,566.08301 C 300.82324,559.81445 297.24316,553.33984 294.03711,546.72266 C 291.44922,541.38086 289.33398,538.78809 283.34766,537.76758 C 270.76465,535.62402 258.92285,532.75195 246.6582,529.18652 C 218.91455,521.11914 190.18066,517.99902 162.43359,510.16992 C 131.91992,501.55957 102.03125,492.65625 72.238769,481.70117 C 68.791015,480.43359 58.796386,477.54199 57.127929,473.87891 C 55.180664,469.60547 61.987792,472.47168 63.400878,473.03906 C 67.816894,474.81055 72.353515,476.25586 76.747558,478.08594 C 90.205566,483.69336 103.40967,489.18066 117.49658,493.10254 C 131.19824,496.91699 145.0498,499.95312 158.74805,503.57812 C 172.22998,507.14648 185.58691,511.05078 199.41406,513.31934 C 212.74219,515.50684 226.28662,518.91602 239.35254,522.24219 C 246.43115,524.04395 253.78516,524.61914 260.81055,526.63672 C 264.05273,527.56738 267.16699,529.07812 270.63574,528.74512 C 274.8623,528.33789 277.2793,529.38281 281.43359,530.47949 C 285.87305,531.65234 280.80371,525.32422 280.20801,524.45605 C 278.13184,521.42969 275.7334,518.61133 273.75684,515.52051 C 269.63086,509.06836 264.99512,503.4668 261.26953,496.76465 C 256.61426,488.39062 250.77295,487.92969 242.13086,486.34961 C 233.82812,484.83203 225.51904,483.42285 217.45605,480.90918 C 204.24121,476.78809 190.58643,474.01953 177.33789,469.96582 C 164.77051,466.12109 152.39453,461.75684 139.79297,458.01367 C 124.3291,453.41992 109.09326,447.35059 93.417968,443.55078 C 78.695312,439.98242 65.048339,433.25684 51.108886,427.41211 C 49.08496,426.56348 29.540038,420.02344 32.833007,417.29492 C 36.488281,414.26172 48.776855,421.67773 52.335449,422.9043 C 64.808593,427.20117 76.644042,434.53516 89.445312,437.20508 C 103.28955,440.0918 116.23828,445.85742 129.69629,450.05664 C 145.229,454.9043 160.93213,460.66602 176.75928,464.2998 C 190.49268,467.45215 204.43603,470.90723 217.91504,475.02539 C 224.5249,477.04395 231.53711,478.92676 238.38086,479.91406 C 241.44189,480.35547 253.51367,482.69434 250.63818,476.26855 C 247.51025,469.27832 243.11914,463.14453 240.27588,455.98535 C 239.26709,453.44531 237.90332,448.91406 235.32861,447.41602 C 234.12598,446.71582 232.47266,447.11426 231.16309,446.88867 C 228.77344,446.47852 226.56885,445.03809 224.29053,444.23633 C 210.92432,439.5293 196.76855,437.15723 183.08594,433.60547 C 169.5625,430.09473 156.28076,425.92578 142.93896,421.76074 C 129.51025,417.56836 114.88037,413.51074 102.77539,406.25195 C 97.469726,403.07031 90.876464,401.76855 85.179199,399.44922 C 77.655273,396.38623 69.862304,394.40283 62.11621,392.05225 C 54.882324,389.85742 47.574218,386.30469 40.774414,383.01221 C 34.703613,380.07275 25.318847,377.47949 20.736816,372.33252 C 18.316406,369.61377 22.455077,369.36133 24.158691,369.88232 C 28.117675,371.09228 31.47998,373.87451 35.149413,375.72607 C 41.992675,379.1792 49.656249,381.79248 56.785156,384.66309 C 64.112304,387.61328 72.173339,388.64648 79.363769,391.71826 C 87.163574,395.05078 94.998535,398.19141 102.72314,401.72656 C 119.14062,409.23828 136.56152,413.82715 153.50195,419.83984 C 169.34619,425.46387 186.14648,427.85156 202.2666,432.55566 C 209.41748,434.64258 216.98389,436.01465 224.28418,437.44336 C 225.43408,437.66797 230.92627,439.72363 229.92383,436.53711 C 228.90723,433.30566 226.97461,429.91406 224.9248,427.23144 C 221.72217,423.04492 220.08789,418.76367 217.9043,414.11523 C 216.21533,410.52051 213.6001,402.64355 209.39062,401.4126 C 196.90527,397.76269 184.64355,391.89795 172.06445,388.8291 C 157.31299,385.22998 140.60937,382.04053 126.81836,375.61963 C 99.421874,362.86377 70.458495,352.94189 43.450683,339.29687 C 37.012695,336.04492 30.61621,332.59717 24.13037,329.47559 C 22.558105,328.71826 18.490234,327.46143 17.834472,325.4834 C 16.387695,321.11816 24.223144,324.30518 25.271484,324.83887 C 32.290038,328.40918 39.321288,331.56299 46.517578,334.70801 C 54.006347,337.98047 61.04541,342.30176 68.746093,345.02246 C 97.212402,355.07959 123.06103,371.32959 152.83057,378.06348 C 164.60742,380.72754 175.63769,384.70898 187.18066,388.15674 C 192.06592,389.61523 201.02881,395.41894 206.01514,394.58789 C 209.31445,394.0376 201.48584,382.28906 200.58935,380.54639 C 197.1665,373.89062 194.80615,366.30225 190.54834,360.12012 C 187.34424,355.46875 177.55225,354.5708 172.55566,353.16455 C 158.70508,349.2666 144.63623,342.41406 132.25146,335.20068 C 118.71875,327.31885 103.67383,321.979 89.90625,314.57275 C 75.85498,307.01416 61.647949,298.49365 48.245605,289.86377 C 46.867187,288.97607 33.669433,280.14404 38.198242,280.14404 C 43.865234,280.14404 52.345703,287.7915 57.125,290.53125 C 70.194824,298.0249 83.26123,305.91162 96.983398,312.11426 C 103.63184,315.11914 110.09473,318.50781 116.62305,321.75488 C 120.56689,323.71631 124.57227,325.55957 128.58447,327.37646 C 131.73926,328.80664 133.95508,331.0498 137.35596,331.92676 C 143.49268,333.51025 148.61182,338.61035 154.91016,340.2251 C 163.61621,342.45361 171.30859,347.70654 179.87744,350.4292 C 187.89941,352.97803 186.31103,348.60889 183.88574,342.8291 C 180.66699,335.15869 177.03613,327.74707 174.0376,319.97021 C 171.57812,313.59277 169.93164,311.86182 163.70019,309.0625 C 156.35596,305.76367 149.02539,302.53809 141.74707,299.04932 C 129.1167,292.9956 116.35937,286.50293 104.15918,279.58301 C 91.374511,272.33105 78.29834,265.78516 66.158203,257.30908 C 61.579589,254.1123 57.353515,250.33789 52.978027,246.8706 C 50.737793,245.0957 46.65625,242.80566 45.505371,240.10449 C 43.590332,235.60986 51.197754,240.3457 52.002441,240.80371 C 57.636718,244.00879 62.478515,248.36914 67.611816,252.271 C 74.070312,257.18017 81.012695,261.13281 87.994629,265.21728 C 94.132324,268.8081 100.19922,272.27734 106.67432,275.19287 C 113.52637,278.27881 119.6626,283.14258 126.58398,285.92773 C 132.10742,288.15039 137.61914,290.26611 143.00586,292.85107 C 147.63037,295.06982 153.50781,299.81299 158.51123,300.71924 C 161.72559,301.2998 167.81592,306.29541 166.11279,300.2373 C 163.87891,292.29053 160.95117,284.48389 158.11133,276.74023 C 156.93506,273.53369 156.18262,270.41211 153.10986,268.68457 C 145.89795,264.63037 138.56299,260.92969 131.22705,257.11426 C 117.65039,250.05225 103.82227,242.12012 91.949219,232.46387 C 87.109375,228.52734 82.035644,224.94189 77.161133,221.06006 C 74.46289,218.91113 60.292969,209.44238 61.468262,205.36035 C 62.406738,202.10254 76.280273,214.24853 77.260742,215.04492 C 84.111328,220.60791 91.386719,226.02637 98.552246,231.18408 C 110.41992,239.72559 123.43652,246.84766 136.40186,253.57129 C 140.10547,255.4917 145.74707,259.646 150.02686,259.8999 C 152.8667,260.06738 146.22559,244.89355 145.36865,242.55469 C 143.24805,236.76807 139.99854,234.6123 134.31641,232.61133 C 126.23291,229.76465 119.3208,224.22363 112.44922,219.28174 C 100.07666,210.3916 87.500488,200.48291 77.15918,189.25 C 74.730469,186.61182 72.549805,180.40234 78.585938,184.49902 C 84.975586,188.83545 89.703613,195.20166 95.852051,199.91602 C 108.10059,209.30811 119.89844,219.37695 133.60156,226.70459 C 135.6626,227.80664 139.62402,230.58545 139.62402,226.3501 C 139.62402,223.25439 137.63916,219.38525 136.67139,216.5127 C 135.18359,212.09619 133.19678,198.76221 128.03027,197.27051 C 116.33594,193.89355 105.79541,182.25977 96.73877,174.70264 C 93.633789,172.11182 81.477051,164.1875 81.65625,159.91748 C 81.845703,155.40234 95.660645,168.10742 97.072754,169.38574 C 102.3623,174.1748 108.14111,177.99658 113.90967,182.14355 C 117.42285,184.66895 120.93262,187.36572 124.85547,189.24023 C 128.77393,191.11182 127.52783,187.38281 127.15625,184.63574 C 126.12891,177.05029 125.49707,171.01074 119.07178,166.32617 C 112.6416,161.63818 106.51758,156.89746 100.65918,151.5 C 97.645996,148.72363 94.43457,146.16504 91.453125,143.35596 C 90.252441,142.22461 87.54541,137.69238 86.288574,137.12598 C 85.961426,136.97852 79.908203,139.74316 79.541992,140.23584 C 78.76709,141.27783 79.318848,145.8291 79.219238,147.2207 C 79.046875,149.63281 78.703613,151.36523 76.34082,152.34326 C 73.625976,153.46826 75.376953,157.85791 75.60498,160.0127 C 75.858398,162.4082 76.59375,165.66699 75.196289,167.85645 C 72.092773,172.71924 69.853027,166.10547 66.504883,166.41064 C 63.979004,166.64062 63.720215,180.65723 64.024902,182.71582 C 64.525879,186.0957 66.746582,199.14014 59.810059,198.02002 C 58.120605,197.74756 52.529297,193.28125 52.324707,196.61426 C 52.029785,201.41357 51.902832,203.25537 48.46875,206.96484 C 47.146973,208.39258 48.809082,212.31348 49.011719,214.17822 C 49.386719,217.63477 50.092773,221.86377 49.288574,225.30078 C 47.499023,232.94629 40.834961,222.55566 38.972656,224.18506 C 36.273926,226.54639 40.65332,237.98779 40.099121,241.74512 C 39.209961,247.77783 32.086914,246.14355 34.147949,252.55225 C 35.356934,256.3125 42.780273,271.19141 34.321777,272.42969 C 27.510742,273.42725 24.013672,263.57422 25.26709,274.82715 C 25.639648,278.16992 25.987305,281.93848 25.29248,285.26514 C 24.499512,289.05859 19.492187,286.94434 21.562012,291.77197 C 23.848633,297.10791 27.219726,305.78125 23.344238,311.10498 C 21.405762,313.76807 17.623047,312.99023 14.782226,313.11377 C 10.589355,313.2959 11.977539,317.13623 12.520019,320.41162 C 12.920898,322.83594 14.968262,327.85498 13.491699,330.19141 C 11.188965,333.83545 11.137695,333.84521 12.668945,337.87744 C 14.320312,342.22461 20.609375,353.58643 13.26416,356.03369 C 10.068848,357.09814 7.4243162,355.23535 8.4384764,359.43408 C 9.2524412,362.80566 8.0615233,364.7334 8.1162108,368.01611 C 8.177246,371.68799 10.967773,374.68213 10.967773,378.44287 C 10.967773,383.55762 15.0625,387.03516 18.098633,390.57275 C 20.510742,393.38379 19.263672,396.02881 20.57959,398.98437 C 21.992676,402.15918 25.934082,403.66309 25.82666,407.72559 C 25.659668,414.04785 9.1757811,407.2998 13.051758,413.63281 C 14.657227,416.25684 15.407227,419.48633 16.43457,422.35937 C 17.871582,426.38086 16.079101,428.83496 19.556641,431.96484 C 22.061523,434.21973 24.782226,435.89355 26.977539,438.51855 C 29.958496,442.08398 27.389648,443.65039 28.560547,447.35156 C 29.848633,451.4043 44.01416,457.57617 36.845215,463.16895 C 33.925293,465.44727 29.525879,463.87305 26.241211,465.41309 C 24.264648,466.33984 28.62207,471.62207 29.309082,472.6709 C 31.32373,475.74609 34.079101,478.71289 35.433105,482.16602 C 36.449219,484.75684 33.919433,487.56445 35.114746,489.79687 C 36.426758,492.24316 40.342773,494.21387 42.503906,495.71094 C 46.368164,498.38574 44.562988,501.9668 47.15332,504.85352 C 49.552734,507.52637 53.37793,508.51074 55.522461,511.56055 C 56.765137,513.32812 56.981445,515.42871 58.393555,517.13184 C 59.483887,518.44629 72.320312,529.77246 64.723144,530.19727 C 61.299316,530.3877 57.516113,529.7168 54.244141,528.75781 C 54.089844,528.71289 48.204101,526.68359 49.364258,528.67969 C 52.376953,533.86328 57.539062,539.72266 62.174316,543.53516 C 65.812988,546.5293 77.311035,551.61133 74.831543,557.81445 C 72.729004,563.06543 82.524414,566.29395 85.720215,568.24707 C 91.03125,571.49414 95.402832,575.44336 89.20166,580.28027 C 84.77832,583.73242 95.988281,589.09277 98.935059,591.84375 C 101.05322,593.82227 101.14795,596.26562 102.85986,598.28418 C 104.80908,600.58398 108.64502,601.13379 111.3877,601.74023 C 114.36768,602.39844 128.5459,605.18848 126.39648,610.88086 C 125.44824,613.38867 122.41797,614.5752 126.2793,616.04395 C 130.24854,617.55469 134.46777,617.31934 138.55322,618.20508 C 141.17139,618.77246 143.37207,620.72168 141.67139,623.57617 C 139.15039,627.80762 137.4292,628.12695 142.56299,630.34766 C 145.50195,631.61914 148.15186,633.45215 151.03125,634.84473 C 153.63623,636.10547 156.89258,636.71875 159.03125,638.77246 C 161.1084,640.76758 158.87793,642.1543 158.79248,644.3291 C 158.71924,646.2041 164.40771,646.5918 165.47266,646.86621 C 167.63916,647.42578 170.13428,648.3457 171.04688,650.59668 C 172.04395,653.05566 170.87598,655.23828 173.7959,656.61133 C 179.10352,659.1084 185.67334,658.10938 191.33203,660.25 C 194.11377,661.30273 204.10498,665.12793 197.99658,669.00781 C 190.84424,673.5498 195.22168,672.39551 200.71826,675.74707 C 202.85742,677.05078 202.6875,678.56055 203.64063,680.55664 C 204.4585,682.27051 207.34375,682.58398 208.90625,683.00488 C 214.71045,684.57031 221.38086,684.27246 226.79248,686.99414 C 232.42822,689.8291 223.8208,695.21875 231.48779,696.63379 C 235.46484,697.36816 242.44141,696.28418 245.61279,699.45508 C 247.27148,701.11328 244.81543,705.82617 246.09522,706.16699 C 248.04736,706.68652 250.10303,706.94531 252.08984,707.29199 C 254.73242,707.75293 257.32617,707.84766 259.42871,709.74414 C 262.16895,712.2207 266.44922,711.76074 269.80566,713.04395 C 273.27246,714.37012 272.95898,715.7002 274.125,718.83203 C 274.8457,720.76953 279.85938,720.52246 281.44141,720.80469 C 283.46289,721.16602 287.29004,721.62402 288.5,723.65723 C 288.95508,724.42188 288.53418,728.30371 289.23535,728.33398 C 293.87891,728.53613 298.39551,728.45605 303.03223,728.19434 C 305.63965,728.04688 306.91797,729.54688 308.90918,730.92383 C 310.89355,732.2959 314.97461,731.03906 317.06934,730.42383 M 211.05518,660.14844 C 207.81006,658.85742 211.62354,656.8418 213.16309,656.59961 C 216.85596,656.01855 220.34375,654.21094 223.9165,653.18164 C 228.26172,651.92969 234.66016,646.89258 239.19531,648.0293 C 244.34961,649.32324 230.6709,656.25684 229.625,656.64258 C 225.39258,658.19922 215.51904,661.92285 211.05518,660.14844 M 406.67773,708.39258 C 409.05078,705.53516 408.2793,684.375 408.07715,684.45117 C 407.20898,684.7793 406.95313,691.10938 406.69824,692.14355 C 405.9707,695.10156 404.94238,698.07422 403.46777,700.74805 C 402.9043,701.76855 400.10156,704.24707 401.08301,705.3418 C 402.00684,706.37109 405.35156,709.99023 406.67773,708.39258 M 398.38965,696.05469 C 401.04395,693.15723 402.77246,689.61816 403.33203,685.72168 C 403.52148,684.39941 403.61523,682.52734 404.23535,681.29297 C 405.28906,679.2041 407.39941,682.14844 408.06445,681.48047 C 410.09277,679.46191 409.74219,671.1748 410.1084,668.46582 C 410.60547,664.78027 411.04102,661.05176 411.85742,657.41797 C 412.3623,655.16992 413.51074,653.04004 413.84863,650.77148 C 414.39551,647.10254 409.66895,645.91211 409.68555,642.09766 C 409.72266,632.94531 419.39355,628.05859 421.39844,620.00781 C 421.75488,618.58691 420.26465,617.24414 419.7793,616.06055 C 418.89551,613.90527 420.11816,611.8252 421.29297,610.07031 C 424.03613,605.97266 426.52246,601.70117 429.43555,597.71875 C 430.68262,596.01562 435.47266,590.96582 434.5498,588.55859 C 433.30762,585.34473 427.8252,586.5166 430.22363,581.33398 C 432.26074,576.93457 436.60156,574.01172 439.08887,569.87793 C 439.96973,568.41309 437.41016,566.77734 436.79492,565.57422 C 435.89746,563.81836 437.1416,561.84863 437.88184,560.28125 C 439.57617,556.68848 441.54102,553.21191 443.36133,549.68066 C 445.5752,545.38574 444.30859,546.80664 441.95605,543.2041 C 438.95215,538.60254 448.08398,529.8623 448.10254,524.93164 C 431.37012,526.07813 444.33984,511.83984 448.33105,504.34473 C 449.09082,502.91797 450.58496,500.92187 449.85449,499.2373 C 448.73535,496.6543 447.9668,495.65918 448.97363,492.69238 C 449.40918,491.41016 452.33105,486.70898 450.67383,485.55273 C 448.65332,484.14355 446.05566,484.35059 446.2373,481.12109 C 446.5498,475.55078 450.03125,469.61035 451.17383,464.06348 C 451.55273,462.22461 452.30762,459.63672 451.03711,457.97168 C 448.86621,455.125 447.62109,454.44043 448.28125,450.8877 C 448.95508,447.26465 453.75781,436.29883 449.84277,433.87891 C 445.69531,431.3125 449.26074,423.9082 449.16406,419.73437 C 433.82617,424.52539 445.5,397.65479 442.96582,391.67969 C 442.15527,389.77002 439.05566,389.72559 438.63867,386.9668 C 438.08496,383.30371 439.34473,379.22314 440.01562,375.65625 C 441.09473,369.92187 436.52246,368.15723 436.91699,362.20752 C 437.66309,350.96094 435.60937,358.45264 429.11133,360.87744 C 422.43164,363.37061 422.84375,355.50391 422.74316,351.38379 C 422.65137,347.63281 422.7666,343.80225 422.30762,340.07031 C 422.15918,338.86426 417.87988,339.27246 416.61328,338.27637 C 414.63965,336.72559 416.01758,324.90088 415.90137,322.5293 C 415.75098,319.45654 413.61133,320.01221 411.64551,318.15381 C 409.34863,315.98291 409.03711,311.9502 408.3457,309.07812 C 405.89258,298.89014 403.66309,313.1001 397.23535,309.95654 C 393.26074,308.01318 393.0332,299.02881 392.73047,295.30469 C 392.43262,291.63281 391.26172,291.11133 389.09961,288.62451 C 387.02734,286.23975 388.19141,280.76123 388.32129,278.01074 C 388.4668,274.93213 389.60059,271.08447 387.66894,268.42041 C 386.95312,267.43457 384.10254,260.1875 383.10644,260.1875 C 380.62305,260.1875 379.85937,263.75537 376.55371,263.37158 C 372.92187,264.06592 374.52148,263.48145 371.63086,266.53809 C 365.0459,273.50293 364.4668,256.24121 363.95117,253.19873 C 363.40625,249.98828 362.89062,246.58838 361.73144,243.52783 C 361.30762,242.40625 360.55566,241.9292 359.33008,241.9292 C 356.25586,241.9292 355.85449,239.01758 354.875,236.87109 C 354.14648,235.27393 345.57031,223.02979 344.63965,223.34082 C 342.8418,223.94287 343.25977,228.38086 340.99805,229.3877 C 338.90625,230.31885 333.49023,231.08203 331.45605,229.99121 C 325.8457,226.98828 330.99023,214.58447 324.66699,212.22803 C 317.69043,209.61621 321.1416,202.83838 316.84473,198.24121 C 314.8418,196.09912 312.64062,196.3916 311.37598,192.99268 C 309.42773,187.74902 307.4082,188.91943 306.70019,193.70801 C 306.22363,196.93408 301.60352,208.67529 296.73144,202.60107 C 294.31934,199.59277 293.62305,187.47559 289.64648,186.76758 C 282.44043,185.48584 282.49902,178.02441 278.52148,172.67187 C 276.06543,169.3667 276.07422,171.354 274.26074,173.87402 C 273.36523,175.11865 272.00684,176.66797 270.47754,177.15332 C 268.89355,177.6543 267.64062,181.31494 266.84961,182.4668 C 261.38769,190.41699 259.02344,177.53857 257.29394,174.06787 C 256.15039,171.77002 255.01465,166.2207 252.86719,164.7832 C 250.85644,163.43701 248.73437,169.29834 245.41748,165.52051 C 244.46338,164.43359 235.24365,149.2041 233.63965,150.92139 C 231.90625,152.77686 232.74316,157.75879 232.12451,160.15283 C 231.21289,163.6792 226.97217,165.96924 224.74756,162.17725 C 222.86621,158.96973 221.76855,155.35498 219.77441,152.21143 C 217.93311,149.30859 215.59131,152.5498 213.18848,151.06934 C 209.81738,148.99268 210.60156,143.9375 207.43603,141.97852 C 205.92773,141.04492 204.02148,148.19824 201.36133,148.47168 C 195.60693,149.06299 193.45703,137.00098 191.59473,133.52441 C 190.51758,131.51318 186.42822,129.73877 184.58398,128.43213 C 183.28467,127.51123 180.59766,134.07861 177.60645,134.07861 C 171.42627,134.07861 174.68945,124.62158 169.47754,123.479 C 166.78027,122.8877 164.54492,118.6333 162,119.55371 C 157.53076,121.16992 155.11279,117.19873 153.23389,113.6748 C 151.1582,109.78027 150.57324,112.88379 147.24609,111.83398 C 144.6084,111.00195 143.02148,106.08887 142.08203,103.91846 C 141.06152,101.56152 140.15625,95.625977 137.72607,94.268555 C 135.97119,93.288574 133.04541,95.886231 130.56543,94.472168 C 126.40186,92.099121 126.229,83.273926 125.07812,79.310547 C 124.1626,76.15625 121.54248,77.400391 119.01416,76.053223 C 115.6543,74.262695 117.35498,69.868652 116.36865,66.972168 C 115.84863,65.445313 112.81885,64.89502 112.12891,66.500977 C 111.07471,68.95459 110.53369,71.805664 110.14014,74.433106 C 109.57812,78.185059 110.6748,82.116211 111.44336,85.759277 C 111.85986,87.733887 112.12109,93.950195 113.93115,95.355957 C 116.05127,97.002442 117.88818,80.104981 121.78564,81.554688 C 127.46289,83.666504 117.29492,100.57959 116.91357,104.3877 C 116.75488,105.97021 118.91797,122.92529 120.34961,121.60889 C 125.41943,116.94678 125.8584,107.4707 129.57422,101.75098 C 131.3291,99.049805 134.62793,99.751953 133.73633,103.14941 C 132.62891,107.36719 130.75342,111.51563 129.18555,115.58398 C 127.52393,119.89551 124.8667,123.83496 123.2251,128.05273 C 120.88672,134.06104 124.55371,143.61621 125.88428,149.53271 C 126.6875,153.10596 126.55713,157.34912 127.96875,160.73389 C 129.43701,164.24512 132.93896,156.5835 133.70459,155.29932 C 137.51807,148.89893 140.04102,141.86719 143.38477,135.22168 C 144.01123,133.97705 151.10986,117.47461 153.01514,122.54346 C 154.9624,127.72412 148.56592,137.03223 146.35986,141.55371 C 143.604,147.20215 140.24951,152.47949 137.40527,158.04736 C 134.76123,163.22021 129.54297,167.51807 130.62598,173.68311 C 131.03174,175.99316 134.98535,194.86328 137.27832,193.77686 C 142.88916,191.11768 147.17041,182.82324 151.20459,178.24072 C 156.09473,172.68604 160.88428,166.83643 165.00488,160.68799 C 169.08008,154.60693 174.26221,148.40137 177.55518,141.87451 C 178.19678,140.60205 182.45361,135.58838 182.74756,140.09375 C 182.98926,143.7998 179.51318,148.20166 177.62891,151.0625 C 169.38379,163.58398 160.7998,175.25098 151.17188,186.7666 C 148.21729,190.30029 145.18848,193.31641 141.88477,196.44971 C 135.83252,202.18945 141.0459,209.42334 143.01514,216.24072 C 143.85156,219.13525 146.88281,232.51367 151.66797,226.89795 C 156.25488,221.51465 161.17627,215.71729 164.94727,209.72949 C 172.16553,198.26758 180.83838,186.79346 189.01172,175.97559 C 193.54297,169.97754 197.14746,163.77051 200.91553,157.28125 C 201.84863,155.67432 206.28809,151.56738 206.28809,156.20459 C 206.28809,159.1582 203.44385,163.08252 202.04785,165.5293 C 194.49756,178.76367 184.1416,189.9917 175.89209,202.62012 C 171.81787,208.85693 167.88184,214.71191 163.39697,220.66455 C 160.17676,224.93799 151.08398,231.78125 151.61719,237.41309 C 152.1748,243.30615 157.01025,248.57373 157.03711,254.42871 C 157.05127,257.23389 159.42773,261.62695 160.37451,264.32568 C 161.78369,268.3418 165.12305,264.15479 166.63574,262.48779 C 177.64941,250.34668 187.58643,237.00488 196.59814,223.32227 C 204.02783,212.0415 210.93701,200.39063 217.74854,188.75342 C 220.77441,183.58398 223.76318,178.38965 226.68408,173.16064 C 227.42773,171.8291 230.23779,166.7915 232.07715,169.58203 C 233.74658,172.11475 231.05176,176.7334 229.99805,178.95215 C 224.53906,190.44873 217.00977,201.63867 210.30225,212.49512 C 203.86426,222.91504 197.27148,233.27979 190.146,243.25684 C 185.87451,249.23731 181.02393,254.84863 176.0918,260.28809 C 173.09424,263.59424 164.99756,268.99854 165.63916,274.06787 C 166.45264,280.50147 171.396,286.12305 172.71338,292.50586 C 173.33887,295.54346 176.11084,298.06641 176.12939,301.18311 C 176.1543,305.01758 178.56885,303.72119 180.4668,302.15723 C 191.2832,293.24854 200.02832,281.02832 209.3584,270.59766 C 219.12647,259.67773 227.57471,247.71484 236.84033,236.40967 C 246.02295,225.20215 254.73242,212.95313 261.35547,200.01758 C 262.99902,196.80762 264.30371,193.01953 266.83984,190.36133 C 268.93945,188.16113 270.27539,191.74023 269.77441,193.47852 C 267.65527,200.83008 262.81836,208.49072 258.67383,214.86719 C 251.19727,226.36231 242.75439,237.1958 234.61426,248.22656 C 230.16699,254.25244 224.88867,259.5127 220.74512,265.74609 C 216.25293,272.50391 210.354,278.70117 204.59717,284.39014 C 199.39355,289.53027 196.01758,296.44629 190.65723,301.2334 C 186.6626,304.80078 178.7666,309.03272 180.13428,315.44629 C 181.521,321.94922 184.82324,328.28125 187.09619,334.50879 C 189.41699,340.8667 191.39697,350.63916 195.94238,355.72607 C 200.85107,361.22022 221.13574,334.43018 224.62012,330.86231 C 236.1084,319.09815 246.02832,304.54639 255.75,291.2666 C 272.78906,267.99121 287.2207,242.79736 299.86035,216.89502 C 300.66406,215.24805 303.80957,208.49756 306.68066,210.40967 C 309.45215,212.25537 305.69629,216.9165 304.80762,218.77734 C 301.14941,226.43555 297.65234,234.66113 293.07129,241.81836 C 285.21191,254.06494 278.96094,267.44482 270.67969,279.49316 C 252.19678,306.38379 231.9585,333.89795 207.77441,355.94873 C 202.56836,360.6958 197.64307,361.98584 201.2876,369.76465 C 204.16895,375.91455 208.25342,381.66357 211.62842,387.55371 C 213.45703,390.74463 215.15186,395.30811 218.34863,397.39063 C 220.9585,399.0918 224.19336,393.82324 225.62793,392.39893 C 231.21045,386.85693 236.44189,381.49902 241.44043,375.31934 C 260.50781,351.74658 282.72461,330.67627 299.11914,304.98975 C 308.47852,290.32422 317.57227,275.40918 325.76367,260.0542 C 328.74609,254.46484 330.78613,248.50635 333.65137,242.88281 C 334.36426,241.4834 335.36035,239.39795 337.08105,239.01758 C 341.65625,238.00733 339.37012,244.29297 338.74316,246.00977 C 333.16113,261.29541 323.47559,273.80615 316.27246,288.21729 C 313.03613,294.69434 308.20801,301.04199 304.24316,307.13818 C 299.99707,313.66846 295.62305,320.27734 290.45215,326.11719 C 271.30664,347.74024 254.70898,373.25049 233.19043,392.66553 C 229.9126,395.62305 222.36963,400.55469 222.10986,405.62988 C 221.74658,412.71973 229.63477,420.72754 232.60449,427.01367 C 234.021,430.0127 238.45752,443.39063 243.59522,441.82227 C 246.00732,441.08594 248.13867,437.31445 249.58887,435.51465 C 251.96777,432.56348 254.36816,430.27441 257.09375,427.73828 C 261.64355,423.50293 266.14551,418.38672 269.25488,412.98242 C 273.36914,405.82813 280.68262,400.03662 286.17773,393.98828 C 295.98828,383.19092 305.72363,372.39844 314.66602,360.85645 C 333.02344,337.16309 349.48828,312.36914 362.9502,285.57471 C 364.47949,282.52979 365.93164,278.57227 368.64746,276.3291 C 371.9043,273.63867 371.02051,280.59473 370.54785,281.74121 C 367.22949,289.79639 362.82617,297.61377 358.79688,305.32813 C 352.20313,317.95459 344.51563,330.40625 336.21289,341.95703 C 327.58496,353.96191 318.83008,366.64014 308.77246,377.50342 C 297.62598,389.54492 286.40137,401.31934 275.64941,413.69141 C 270.8584,419.2041 266.54102,424.98535 261.66406,430.43164 C 257.25488,435.35742 251.5835,440.16113 247.81592,445.49414 C 243.98975,450.91113 249.50684,456.37402 251.48242,461.87695 C 252.96387,466.00781 255.19629,469.7666 257.44336,473.5166 C 258.90332,475.95215 260.19043,480.42285 263.125,477.38281 C 265.70508,474.7041 269.11719,473.39356 271.45605,470.37891 C 273.97852,467.12598 276.78223,463.86914 280.11523,461.41406 C 284.79492,457.9668 289.07031,454.20215 293.29004,450.18457 C 305.01465,439.01953 315.94141,426.92969 327.11719,415.2207 C 347.93945,393.40869 364.52734,367.92969 381.83008,343.29102 C 386.37598,336.81787 390.32227,330.25732 394.16895,323.36279 C 395.4873,320.99951 397.28418,317.21045 399.91309,315.97852 C 404.43164,313.86035 401.5332,321.53223 401.03418,322.53467 C 393.32324,338.00635 382.70215,351.69824 372.80371,365.80078 C 364.05566,378.26416 354.21289,389.93408 345.2041,402.20606 C 340.49707,408.61719 334.625,414.35352 329.14844,420.10449 C 324.26074,425.23535 319.67187,430.83594 314.36816,435.55078 C 308.49121,440.76953 303.74707,447.23438 298.21777,452.82031 C 292.06934,459.0332 285.78418,465.23438 280.16113,471.93652 C 276.12793,476.74316 270.89453,480.19336 266.77539,484.94727 C 264.44531,487.63574 265.33301,488.64649 266.74414,491.78418 C 267.63867,493.77441 268.13672,495.87402 269.34375,497.72461 C 270.64648,499.72266 273.10938,500.3418 274.27832,502.35352 C 277.75098,508.33106 282.03418,513.97656 285.46973,520.14844 C 289.21484,526.87793 290.5459,525.60254 295.34277,520.83203 C 299.52832,516.66992 303.0957,511.78711 307.32422,507.72168 C 311.42578,503.77734 316.79785,500.80957 321.01562,496.66113 C 346.1582,471.93164 370.52832,446.39844 391.72461,418.21582 C 396.93457,411.29004 402.85645,405.01758 407.05859,397.37207 C 411.14355,389.94092 415.20801,382.5166 419.2373,375.04932 C 421.25781,371.30518 427.75098,364.56494 425.05469,373.5835 C 422.65723,381.60352 417.68457,388.72217 413.95996,396.17139 C 407.30469,409.47754 396.63477,420.84277 387.77051,432.72461 C 378.44824,445.22266 367.30371,456.53125 356.38672,467.61816 C 338.38086,485.90527 318.79004,503.05566 302.37598,522.79199 C 299.44043,526.32129 292.21289,531.24902 295.39941,535.89453 C 300.00391,542.59961 303.49805,550.67676 308.72559,556.87793 C 313.31152,562.31738 317.15527,568.4668 322.04199,573.66992 C 325.0293,576.85742 325.86035,575.13574 328.24512,572.1582 C 330.78027,568.99316 333.52246,566.72266 336.52832,564.06738 C 341.96973,559.26074 349.52051,554.44824 353.62402,548.49609 C 358.07812,542.04297 363.78027,536.27148 368.63965,530.0918 C 378.64453,517.36914 386.81152,503.34473 396.28027,490.22949 C 405.40137,477.5957 414.41113,464.75293 423.77344,452.36914 C 428.05469,446.70703 429.76465,439.11231 433.5752,433.12695 C 434.2002,432.14453 437.98437,427.08691 439.22363,430.24609 C 440.43262,433.3252 436.60156,439.17871 435.20508,441.71387 C 428.35547,454.14746 420.15137,465.63184 412.24121,477.35742 C 402.51465,491.77637 393.06152,506.61328 382.86035,520.68555 C 374.4873,532.23047 365.74902,543.2002 356.66211,554.19434 C 351.04004,560.99707 344.76953,567.21582 339.23828,574.0957 C 337.46875,576.29688 335.42871,578.5752 334.1377,581.10938 C 331.79883,585.68848 330.37305,584.73633 333.95996,589.87305 C 340.95801,599.89453 345.40625,611.60547 352.06445,621.80371 C 356.2041,628.14648 358.35645,625.17871 362.20996,620.24805 C 365.83594,615.60938 369.44629,610.98633 372.95801,606.25391 C 380.8252,595.6543 388.74219,584.75098 395.81055,573.59766 C 401.29883,564.9375 408.10937,556.85645 412.79785,547.77051 C 417.93555,537.81445 422.56543,527.67676 427.12988,517.44531 C 429.05273,513.13477 431.17578,508.87305 433.48535,504.75684 C 435.32031,501.48731 438.93066,501.64941 437.80469,506.13574 C 436.34082,511.96484 433.08691,518.13965 430.71289,523.72559 C 428.35547,529.27441 426.30859,536.69922 422.9043,541.64453 C 419.55273,546.49902 417.14746,551.99023 413.80371,556.89258 C 412.53223,558.75684 403.11133,570.91211 404.72461,572.93555 C 407.0918,575.90625 434.54395,545.4541 437.5918,544.45703 C 441.87109,543.05762 438.29687,548.81445 437.64453,549.62207 C 432.7168,555.71777 427.11719,561.34766 421.16016,566.42969 C 415.52246,571.23926 410.03418,575.27734 403.99805,579.48633 C 396.38184,584.7959 392.22461,590.72461 387.19238,598.33594 C 383.26367,604.27832 378.5625,610.28809 373.79004,615.56641 C 369.01269,620.8457 362.24805,627.39844 358.88574,633.61914 C 356.96582,637.1709 363.96582,645.68652 365.91992,648.78516 C 370.45801,655.98047 373.39746,649.74219 377.98144,645.21387 C 389.62793,633.70899 399.64453,622.62891 408.13672,608.40039 C 411.70117,602.42871 414.82422,596.06152 418.71973,590.30078 C 420.40137,587.81348 421.81445,582.06152 423.98535,580.35059 C 427.57519,577.5293 427.52344,583.375 426.76758,585.24805 C 420.6543,600.40332 408.91699,613.28809 402.74219,628.33301 C 399.97363,635.07813 397.31934,637.79981 391.71191,642.54199 C 386.30957,647.11035 380.59668,653.19824 376.59961,659.04297 C 374.23242,662.50488 379.56445,668.4834 380.75684,672.09766 C 384.32812,682.90625 389.50977,674.31836 393.08594,668.16113 C 394.81055,665.19238 396.59863,662.76758 398.86035,660.18848 C 400.58301,658.22363 402.69238,653.47656 405.6084,653.0752 C 409.59277,652.52734 408.36035,657.52734 407.08008,659.25195 C 404.5166,662.70703 401.99902,666.08984 400.17969,670.02051 C 398.61523,673.40137 398.32812,675.44141 395.05176,677.71387 C 392.96387,679.16016 390.50684,682.91992 389.28711,685.1582 C 387.87695,687.74609 394.64648,700.14648 398.38965,696.05469 M 121.35156,158.81201 C 121.32031,155.34766 119.95361,151.5918 119.08789,148.27539 C 118.28027,145.18262 117.75879,139.51758 114.97949,137.45312 C 111.32617,134.73926 107.06836,132.66016 103.28418,130.10254 C 100.48584,128.21094 92.492676,123.68018 92.492676,119.99658 C 92.492676,115.03955 100.08887,121.71533 101.58984,122.75098 C 104.81934,124.979 108.26074,127.85107 111.91064,129.36182 C 117.14844,131.52686 112.39111,111.18457 109.9707,108.49707 C 107.06494,105.27051 102.55908,103.10645 99.160156,100.41406 C 96.168457,98.084961 96.055176,97.097168 92.638184,98.869629 C 87.089844,101.68701 91.762207,107.54883 91.817383,112.74854 C 91.85498,116.24316 91.503906,116.15186 89.155762,118.44141 C 87.754883,119.80811 87.873047,122.81152 86.9375,124.5874 C 85.805664,126.73633 84.395019,134.31738 86.824707,135.81836 C 87.729492,136.37695 88.988769,135.8916 89.983398,136.47852 C 92.211426,137.79395 94.04541,139.94971 95.939453,141.6748 C 100.26221,145.61133 104.79248,149.4043 109.2998,153.12744 C 110.73145,154.31006 121.38721,162.77051 121.35156,158.81201 M 108.57666,100.5752 C 110.8291,99.149414 106.65137,86.150391 106.02295,83.953613 C 105.23828,81.212891 101.76855,80.010254 99.649902,78.375488 C 97.548828,76.753418 92.816406,79.720215 91.875977,82.165527 C 91.085449,84.220703 93.774414,94.165039 96.56543,94.165039 C 99.89209,94.165039 105.57959,102.47363 108.57666,100.5752 M 104.15723,73.821777 C 104.98926,71.201172 103.76904,66.539551 103.08594,63.961426 C 102.47266,61.646484 101.09766,61.845703 99.366211,60.683594 C 97.09082,59.15625 100.40674,58.19873 100.87402,56.76416 C 102.00928,53.274414 99.377441,48.568359 99.038574,45.018555 C 98.87207,43.276855 99.997559,33.856445 98.191895,33.162598 C 94.953613,31.918945 97.125,42.797363 97.249023,43.599609 C 97.599609,45.874023 98.580566,48.196777 98.441406,50.511719 C 98.273926,53.298828 95.507812,53.808105 94.906738,55.791992 C 94.780273,56.209961 96.121582,59.625976 96.166016,59.833496 C 96.724609,62.452637 96.950684,65.396484 96.320312,68.026855 C 95.916016,69.711426 95.396484,72.245117 97.693848,72.740234 C 98.936523,73.008301 103.4751,75.971191 104.15723,73.821777 M 109.81689,64.35791 C 111.21924,62.953125 111.67969,54.38916 110.0542,53.156738 C 105.14648,49.43457 106.90479,46.652832 107.5791,40.665039 C 108.24707,34.731934 105.24561,30.553711 104.84424,24.876953 C 104.65967,22.270508 104.72314,18.855469 103.02637,16.687012 C 102.63037,16.181641 99.972168,11.791016 99.698242,11.791016 C 97.669922,11.791016 96.482422,22.17334 97.032715,23.98291 C 97.603027,25.858399 98.044922,28.753906 99.833496,29.956543 C 101.89795,31.344238 102.03223,30.931152 102.2417,33.586914 C 102.65186,38.778809 102.42236,44.979981 104.33447,49.922852 C 104.88037,51.333984 107.13281,67.041992 109.81689,64.35791"
   id="path4868" />
		</g>
	</svg>